<mxfile host="app.diagrams.net" agent="Mozilla/5.0 (Macintosh; Intel Mac OS X 10_15_7) AppleWebKit/537.36 (KHTML, like Gecko) Chrome/139.0.0.0 Safari/537.36" version="28.2.0">
  <diagram name="Page-1" id="g8OT31MLwkEtNvfpFkAt">
    <mxGraphModel dx="4594" dy="2657" grid="1" gridSize="10" guides="1" tooltips="1" connect="1" arrows="1" fold="1" page="1" pageScale="1" pageWidth="827" pageHeight="1169" background="#ffffff" math="0" shadow="1">
      <root>
        <mxCell id="0" />
        <mxCell id="1" parent="0" />
        <mxCell id="o5fwDeldv9W1Opqi0OKy-67" value="" style="edgeStyle=orthogonalEdgeStyle;rounded=0;orthogonalLoop=1;jettySize=auto;html=1;shape=link;labelBackgroundColor=none;fontColor=default;" parent="1" source="o5fwDeldv9W1Opqi0OKy-1" target="o5fwDeldv9W1Opqi0OKy-19" edge="1">
          <mxGeometry relative="1" as="geometry" />
        </mxCell>
        <mxCell id="o5fwDeldv9W1Opqi0OKy-1" value="&lt;font style=&quot;font-size: 24px;&quot;&gt;user&lt;/font&gt;" style="whiteSpace=wrap;html=1;align=center;labelBackgroundColor=none;" parent="1" vertex="1">
          <mxGeometry x="171" y="170" width="100" height="40" as="geometry" />
        </mxCell>
        <mxCell id="o5fwDeldv9W1Opqi0OKy-4" value="&lt;font style=&quot;font-size: 24px;&quot;&gt;firstname&lt;/font&gt;" style="ellipse;whiteSpace=wrap;html=1;align=center;labelBackgroundColor=none;" parent="1" vertex="1">
          <mxGeometry x="-10" y="-20" width="128" height="40" as="geometry" />
        </mxCell>
        <mxCell id="o5fwDeldv9W1Opqi0OKy-5" value="&lt;font style=&quot;font-size: 24px;&quot;&gt;lastname&lt;/font&gt;" style="ellipse;whiteSpace=wrap;html=1;align=center;labelBackgroundColor=none;" parent="1" vertex="1">
          <mxGeometry x="120" y="-30" width="123" height="40" as="geometry" />
        </mxCell>
        <mxCell id="o5fwDeldv9W1Opqi0OKy-6" value="&lt;font style=&quot;font-size: 24px;&quot;&gt;email&lt;/font&gt;" style="ellipse;whiteSpace=wrap;html=1;align=center;labelBackgroundColor=none;" parent="1" vertex="1">
          <mxGeometry x="260" y="10" width="100" height="40" as="geometry" />
        </mxCell>
        <mxCell id="o5fwDeldv9W1Opqi0OKy-7" value="&lt;font style=&quot;font-size: 24px;&quot;&gt;last_login&lt;/font&gt;" style="ellipse;whiteSpace=wrap;html=1;align=center;labelBackgroundColor=none;" parent="1" vertex="1">
          <mxGeometry x="300" y="110" width="140" height="40" as="geometry" />
        </mxCell>
        <mxCell id="o5fwDeldv9W1Opqi0OKy-8" value="&lt;font style=&quot;font-size: 24px;&quot;&gt;date_created&lt;/font&gt;" style="ellipse;whiteSpace=wrap;html=1;align=center;labelBackgroundColor=none;" parent="1" vertex="1">
          <mxGeometry x="280" y="60" width="170" height="40" as="geometry" />
        </mxCell>
        <mxCell id="o5fwDeldv9W1Opqi0OKy-9" value="&lt;font style=&quot;font-size: 24px;&quot;&gt;user_name&lt;/font&gt;" style="ellipse;whiteSpace=wrap;html=1;align=center;fontStyle=4;labelBackgroundColor=none;" parent="1" vertex="1">
          <mxGeometry x="-110" y="120" width="150" height="40" as="geometry" />
        </mxCell>
        <mxCell id="o5fwDeldv9W1Opqi0OKy-10" value="&lt;font style=&quot;font-size: 24px;&quot;&gt;user_id&lt;/font&gt;" style="ellipse;whiteSpace=wrap;html=1;align=center;fontStyle=4;labelBackgroundColor=none;" parent="1" vertex="1">
          <mxGeometry x="-40" y="50" width="122" height="40" as="geometry" />
        </mxCell>
        <mxCell id="o5fwDeldv9W1Opqi0OKy-12" value="" style="endArrow=none;html=1;rounded=0;exitX=1;exitY=1;exitDx=0;exitDy=0;entryX=0;entryY=0.5;entryDx=0;entryDy=0;labelBackgroundColor=none;fontColor=default;" parent="1" source="o5fwDeldv9W1Opqi0OKy-9" target="o5fwDeldv9W1Opqi0OKy-1" edge="1">
          <mxGeometry relative="1" as="geometry">
            <mxPoint x="530" y="270" as="sourcePoint" />
            <mxPoint x="690" y="270" as="targetPoint" />
          </mxGeometry>
        </mxCell>
        <mxCell id="o5fwDeldv9W1Opqi0OKy-13" value="" style="endArrow=none;html=1;rounded=0;entryX=0;entryY=0;entryDx=0;entryDy=0;labelBackgroundColor=none;fontColor=default;" parent="1" source="o5fwDeldv9W1Opqi0OKy-10" target="o5fwDeldv9W1Opqi0OKy-1" edge="1">
          <mxGeometry relative="1" as="geometry">
            <mxPoint x="530" y="270" as="sourcePoint" />
            <mxPoint x="690" y="270" as="targetPoint" />
          </mxGeometry>
        </mxCell>
        <mxCell id="o5fwDeldv9W1Opqi0OKy-14" value="" style="endArrow=none;html=1;rounded=0;entryX=0.25;entryY=0;entryDx=0;entryDy=0;labelBackgroundColor=none;fontColor=default;exitX=0.5;exitY=1;exitDx=0;exitDy=0;" parent="1" source="o5fwDeldv9W1Opqi0OKy-4" target="o5fwDeldv9W1Opqi0OKy-1" edge="1">
          <mxGeometry relative="1" as="geometry">
            <mxPoint x="100" y="40" as="sourcePoint" />
            <mxPoint x="260" y="40" as="targetPoint" />
          </mxGeometry>
        </mxCell>
        <mxCell id="o5fwDeldv9W1Opqi0OKy-15" value="" style="endArrow=none;html=1;rounded=0;entryX=0.388;entryY=0.052;entryDx=0;entryDy=0;entryPerimeter=0;exitX=0.5;exitY=1;exitDx=0;exitDy=0;labelBackgroundColor=none;fontColor=default;" parent="1" source="o5fwDeldv9W1Opqi0OKy-5" target="o5fwDeldv9W1Opqi0OKy-1" edge="1">
          <mxGeometry relative="1" as="geometry">
            <mxPoint x="190" y="40" as="sourcePoint" />
            <mxPoint x="350" y="40" as="targetPoint" />
          </mxGeometry>
        </mxCell>
        <mxCell id="o5fwDeldv9W1Opqi0OKy-16" value="" style="endArrow=none;html=1;rounded=0;exitX=0;exitY=1;exitDx=0;exitDy=0;entryX=0.75;entryY=0;entryDx=0;entryDy=0;labelBackgroundColor=none;fontColor=default;" parent="1" source="o5fwDeldv9W1Opqi0OKy-6" target="o5fwDeldv9W1Opqi0OKy-1" edge="1">
          <mxGeometry relative="1" as="geometry">
            <mxPoint x="270" y="50" as="sourcePoint" />
            <mxPoint x="233" y="170" as="targetPoint" />
          </mxGeometry>
        </mxCell>
        <mxCell id="o5fwDeldv9W1Opqi0OKy-17" value="" style="endArrow=none;html=1;rounded=0;entryX=0;entryY=1;entryDx=0;entryDy=0;exitX=1;exitY=0.25;exitDx=0;exitDy=0;labelBackgroundColor=none;fontColor=default;" parent="1" source="o5fwDeldv9W1Opqi0OKy-1" target="o5fwDeldv9W1Opqi0OKy-7" edge="1">
          <mxGeometry relative="1" as="geometry">
            <mxPoint x="270" y="190" as="sourcePoint" />
            <mxPoint x="430" y="190" as="targetPoint" />
          </mxGeometry>
        </mxCell>
        <mxCell id="o5fwDeldv9W1Opqi0OKy-18" value="" style="endArrow=none;html=1;rounded=0;exitX=1;exitY=0;exitDx=0;exitDy=0;entryX=0;entryY=1;entryDx=0;entryDy=0;labelBackgroundColor=none;fontColor=default;" parent="1" source="o5fwDeldv9W1Opqi0OKy-1" target="o5fwDeldv9W1Opqi0OKy-8" edge="1">
          <mxGeometry relative="1" as="geometry">
            <mxPoint x="530" y="270" as="sourcePoint" />
            <mxPoint x="690" y="270" as="targetPoint" />
          </mxGeometry>
        </mxCell>
        <mxCell id="o5fwDeldv9W1Opqi0OKy-28" value="" style="edgeStyle=orthogonalEdgeStyle;rounded=0;orthogonalLoop=1;jettySize=auto;html=1;labelBackgroundColor=none;fontColor=default;" parent="1" source="o5fwDeldv9W1Opqi0OKy-19" target="o5fwDeldv9W1Opqi0OKy-27" edge="1">
          <mxGeometry relative="1" as="geometry" />
        </mxCell>
        <mxCell id="o5fwDeldv9W1Opqi0OKy-32" value="" style="edgeStyle=orthogonalEdgeStyle;rounded=0;orthogonalLoop=1;jettySize=auto;html=1;labelBackgroundColor=none;fontColor=default;" parent="1" source="o5fwDeldv9W1Opqi0OKy-19" target="o5fwDeldv9W1Opqi0OKy-31" edge="1">
          <mxGeometry relative="1" as="geometry" />
        </mxCell>
        <mxCell id="o5fwDeldv9W1Opqi0OKy-19" value="&lt;font style=&quot;font-size: 24px;&quot;&gt;d&lt;/font&gt;" style="ellipse;whiteSpace=wrap;html=1;aspect=fixed;labelBackgroundColor=none;" parent="1" vertex="1">
          <mxGeometry x="167" y="250" width="80" height="80" as="geometry" />
        </mxCell>
        <mxCell id="CRoNFFil0_l_GyruDIOM-10" style="edgeStyle=orthogonalEdgeStyle;rounded=0;orthogonalLoop=1;jettySize=auto;html=1;exitX=0.25;exitY=1;exitDx=0;exitDy=0;endArrow=none;endFill=0;entryX=0.005;entryY=0.636;entryDx=0;entryDy=0;entryPerimeter=0;shape=link;labelBackgroundColor=none;fontColor=default;" parent="1" source="CRoNFFil0_l_GyruDIOM-11" target="CRoNFFil0_l_GyruDIOM-29" edge="1">
          <mxGeometry relative="1" as="geometry">
            <mxPoint x="628" y="535" as="targetPoint" />
            <Array as="points">
              <mxPoint x="167" y="597" />
              <mxPoint x="360" y="597" />
              <mxPoint x="360" y="580" />
              <mxPoint x="600" y="580" />
              <mxPoint x="600" y="535" />
            </Array>
          </mxGeometry>
        </mxCell>
        <mxCell id="o5fwDeldv9W1Opqi0OKy-27" value="&lt;span&gt;&lt;font style=&quot;font-size: 24px;&quot;&gt;Admin&lt;/font&gt;&lt;/span&gt;" style="whiteSpace=wrap;html=1;labelBackgroundColor=none;" parent="1" vertex="1">
          <mxGeometry x="-20" y="260" width="120" height="60" as="geometry" />
        </mxCell>
        <mxCell id="o5fwDeldv9W1Opqi0OKy-31" value="&lt;font style=&quot;font-size: 24px;&quot;&gt;Regular_user&lt;/font&gt;" style="whiteSpace=wrap;html=1;labelBackgroundColor=none;" parent="1" vertex="1">
          <mxGeometry x="294" y="240" width="156" height="80" as="geometry" />
        </mxCell>
        <mxCell id="o5fwDeldv9W1Opqi0OKy-53" value="&lt;font style=&quot;font-size: 24px;&quot;&gt;product&lt;/font&gt;" style="whiteSpace=wrap;html=1;align=center;labelBackgroundColor=none;" parent="1" vertex="1">
          <mxGeometry x="750" y="190" width="100" height="40" as="geometry" />
        </mxCell>
        <mxCell id="o5fwDeldv9W1Opqi0OKy-55" value="&lt;font style=&quot;font-size: 24px;&quot;&gt;product_name&lt;/font&gt;" style="ellipse;whiteSpace=wrap;html=1;align=center;fontStyle=4;labelBackgroundColor=none;" parent="1" vertex="1">
          <mxGeometry x="744" y="10" width="140" height="40" as="geometry" />
        </mxCell>
        <mxCell id="o5fwDeldv9W1Opqi0OKy-56" value="&lt;font style=&quot;font-size: 24px;&quot;&gt;category&lt;/font&gt;" style="ellipse;whiteSpace=wrap;html=1;align=center;labelBackgroundColor=none;" parent="1" vertex="1">
          <mxGeometry x="1110" y="20" width="100" height="40" as="geometry" />
        </mxCell>
        <mxCell id="o5fwDeldv9W1Opqi0OKy-57" value="&lt;font style=&quot;font-size: 24px;&quot;&gt;quantity_available&lt;/font&gt;" style="ellipse;whiteSpace=wrap;html=1;align=center;labelBackgroundColor=none;" parent="1" vertex="1">
          <mxGeometry x="1060" y="140" width="238" height="40" as="geometry" />
        </mxCell>
        <mxCell id="o5fwDeldv9W1Opqi0OKy-59" value="&lt;font style=&quot;font-size: 24px;&quot;&gt;brand&lt;/font&gt;" style="ellipse;whiteSpace=wrap;html=1;align=center;labelBackgroundColor=none;" parent="1" vertex="1">
          <mxGeometry x="1141" y="70" width="100" height="40" as="geometry" />
        </mxCell>
        <mxCell id="o5fwDeldv9W1Opqi0OKy-60" value="&lt;font style=&quot;font-size: 24px;&quot;&gt;current_location&lt;/font&gt;" style="ellipse;whiteSpace=wrap;html=1;align=center;labelBackgroundColor=none;" parent="1" vertex="1">
          <mxGeometry x="1060" y="200" width="210" height="40" as="geometry" />
        </mxCell>
        <mxCell id="o5fwDeldv9W1Opqi0OKy-61" value="&lt;font style=&quot;font-size: 24px;&quot;&gt;description&lt;/font&gt;" style="ellipse;whiteSpace=wrap;html=1;align=center;labelBackgroundColor=none;" parent="1" vertex="1">
          <mxGeometry x="938.5" y="10" width="137" height="40" as="geometry" />
        </mxCell>
        <mxCell id="o5fwDeldv9W1Opqi0OKy-68" value="" style="endArrow=none;html=1;rounded=0;exitX=0;exitY=0;exitDx=0;exitDy=0;entryX=0;entryY=1;entryDx=0;entryDy=0;labelBackgroundColor=none;fontColor=default;" parent="1" source="o5fwDeldv9W1Opqi0OKy-53" target="o5fwDeldv9W1Opqi0OKy-55" edge="1">
          <mxGeometry relative="1" as="geometry">
            <mxPoint x="790" y="260" as="sourcePoint" />
            <mxPoint x="950" y="260" as="targetPoint" />
          </mxGeometry>
        </mxCell>
        <mxCell id="o5fwDeldv9W1Opqi0OKy-70" value="" style="endArrow=none;html=1;rounded=0;exitX=0.5;exitY=0;exitDx=0;exitDy=0;entryX=0;entryY=1;entryDx=0;entryDy=0;labelBackgroundColor=none;fontColor=default;" parent="1" source="o5fwDeldv9W1Opqi0OKy-53" target="o5fwDeldv9W1Opqi0OKy-61" edge="1">
          <mxGeometry relative="1" as="geometry">
            <mxPoint x="790" y="260" as="sourcePoint" />
            <mxPoint x="950" y="260" as="targetPoint" />
          </mxGeometry>
        </mxCell>
        <mxCell id="o5fwDeldv9W1Opqi0OKy-71" value="" style="endArrow=none;html=1;rounded=0;exitX=0.75;exitY=0;exitDx=0;exitDy=0;entryX=0;entryY=0.5;entryDx=0;entryDy=0;labelBackgroundColor=none;fontColor=default;" parent="1" source="o5fwDeldv9W1Opqi0OKy-53" target="o5fwDeldv9W1Opqi0OKy-56" edge="1">
          <mxGeometry relative="1" as="geometry">
            <mxPoint x="790" y="260" as="sourcePoint" />
            <mxPoint x="950" y="260" as="targetPoint" />
          </mxGeometry>
        </mxCell>
        <mxCell id="o5fwDeldv9W1Opqi0OKy-72" value="" style="endArrow=none;html=1;rounded=0;exitX=1;exitY=0;exitDx=0;exitDy=0;entryX=0;entryY=0.5;entryDx=0;entryDy=0;labelBackgroundColor=none;fontColor=default;" parent="1" source="o5fwDeldv9W1Opqi0OKy-53" target="o5fwDeldv9W1Opqi0OKy-59" edge="1">
          <mxGeometry relative="1" as="geometry">
            <mxPoint x="790" y="260" as="sourcePoint" />
            <mxPoint x="950" y="260" as="targetPoint" />
          </mxGeometry>
        </mxCell>
        <mxCell id="o5fwDeldv9W1Opqi0OKy-73" value="" style="endArrow=none;html=1;rounded=0;exitX=1;exitY=0.25;exitDx=0;exitDy=0;entryX=0;entryY=0.5;entryDx=0;entryDy=0;labelBackgroundColor=none;fontColor=default;" parent="1" source="o5fwDeldv9W1Opqi0OKy-53" target="o5fwDeldv9W1Opqi0OKy-57" edge="1">
          <mxGeometry relative="1" as="geometry">
            <mxPoint x="790" y="260" as="sourcePoint" />
            <mxPoint x="950" y="260" as="targetPoint" />
          </mxGeometry>
        </mxCell>
        <mxCell id="o5fwDeldv9W1Opqi0OKy-74" value="" style="endArrow=none;html=1;rounded=0;exitX=1;exitY=0.5;exitDx=0;exitDy=0;entryX=0;entryY=0.5;entryDx=0;entryDy=0;labelBackgroundColor=none;fontColor=default;" parent="1" source="o5fwDeldv9W1Opqi0OKy-53" target="o5fwDeldv9W1Opqi0OKy-60" edge="1">
          <mxGeometry relative="1" as="geometry">
            <mxPoint x="790" y="260" as="sourcePoint" />
            <mxPoint x="950" y="260" as="targetPoint" />
          </mxGeometry>
        </mxCell>
        <mxCell id="o5fwDeldv9W1Opqi0OKy-75" value="" style="endArrow=none;html=1;rounded=0;exitX=1;exitY=0.75;exitDx=0;exitDy=0;entryX=0;entryY=0;entryDx=0;entryDy=0;labelBackgroundColor=none;fontColor=default;" parent="1" source="o5fwDeldv9W1Opqi0OKy-53" target="CRoNFFil0_l_GyruDIOM-15" edge="1">
          <mxGeometry relative="1" as="geometry">
            <mxPoint x="790" y="260" as="sourcePoint" />
            <mxPoint x="1163" y="335" as="targetPoint" />
          </mxGeometry>
        </mxCell>
        <mxCell id="2gLJgADC_CGhkJn0GSP8-1" value="&lt;font style=&quot;font-size: 24px;&quot;&gt;borrows&lt;/font&gt;" style="shape=rhombus;perimeter=rhombusPerimeter;whiteSpace=wrap;html=1;align=center;labelBackgroundColor=none;" parent="1" vertex="1">
          <mxGeometry x="480" y="120" width="120" height="100" as="geometry" />
        </mxCell>
        <mxCell id="2gLJgADC_CGhkJn0GSP8-5" value="&lt;font style=&quot;font-size: 24px;&quot;&gt;borrow_date&lt;/font&gt;" style="ellipse;whiteSpace=wrap;html=1;align=center;labelBackgroundColor=none;" parent="1" vertex="1">
          <mxGeometry x="660" y="774" width="180" height="40" as="geometry" />
        </mxCell>
        <mxCell id="2gLJgADC_CGhkJn0GSP8-6" value="&lt;font style=&quot;font-size: 24px;&quot;&gt;actual_return_date&lt;/font&gt;" style="ellipse;whiteSpace=wrap;html=1;align=center;labelBackgroundColor=none;" parent="1" vertex="1">
          <mxGeometry x="889" y="624.5" width="221" height="55.5" as="geometry" />
        </mxCell>
        <mxCell id="2gLJgADC_CGhkJn0GSP8-8" value="&lt;font style=&quot;font-size: 24px;&quot;&gt;notes&lt;/font&gt;" style="ellipse;whiteSpace=wrap;html=1;align=center;labelBackgroundColor=none;" parent="1" vertex="1">
          <mxGeometry x="1090" y="430" width="100" height="40" as="geometry" />
        </mxCell>
        <mxCell id="2gLJgADC_CGhkJn0GSP8-14" value="&lt;font style=&quot;font-size: 24px;&quot;&gt;product_name(Fk)&lt;/font&gt;" style="ellipse;whiteSpace=wrap;html=1;align=center;fontStyle=4;labelBackgroundColor=none;" parent="1" vertex="1">
          <mxGeometry x="860" y="441" width="151" height="40" as="geometry" />
        </mxCell>
        <mxCell id="2gLJgADC_CGhkJn0GSP8-15" value="&lt;font style=&quot;font-size: 24px;&quot;&gt;user_id(FK)&lt;/font&gt;" style="ellipse;whiteSpace=wrap;html=1;align=center;fontStyle=4;labelBackgroundColor=none;" parent="1" vertex="1">
          <mxGeometry x="594" y="710" width="100" height="40" as="geometry" />
        </mxCell>
        <mxCell id="2gLJgADC_CGhkJn0GSP8-16" value="" style="endArrow=none;html=1;rounded=0;exitX=0.5;exitY=0;exitDx=0;exitDy=0;entryX=0;entryY=1;entryDx=0;entryDy=0;labelBackgroundColor=none;fontColor=default;" parent="1" source="2gLJgADC_CGhkJn0GSP8-15" target="CRoNFFil0_l_GyruDIOM-29" edge="1">
          <mxGeometry relative="1" as="geometry">
            <mxPoint x="760" y="560" as="sourcePoint" />
            <mxPoint x="704" y="527" as="targetPoint" />
          </mxGeometry>
        </mxCell>
        <mxCell id="2gLJgADC_CGhkJn0GSP8-17" value="" style="endArrow=none;html=1;rounded=0;exitX=0.5;exitY=0;exitDx=0;exitDy=0;entryX=0.132;entryY=0.903;entryDx=0;entryDy=0;entryPerimeter=0;labelBackgroundColor=none;fontColor=default;" parent="1" source="2gLJgADC_CGhkJn0GSP8-5" target="CRoNFFil0_l_GyruDIOM-29" edge="1">
          <mxGeometry relative="1" as="geometry">
            <mxPoint x="760" y="560" as="sourcePoint" />
            <mxPoint x="720" y="559" as="targetPoint" />
          </mxGeometry>
        </mxCell>
        <mxCell id="2gLJgADC_CGhkJn0GSP8-18" value="" style="endArrow=none;html=1;rounded=0;exitX=0;exitY=0;exitDx=0;exitDy=0;labelBackgroundColor=none;fontColor=default;" parent="1" source="2gLJgADC_CGhkJn0GSP8-6" target="CRoNFFil0_l_GyruDIOM-29" edge="1">
          <mxGeometry relative="1" as="geometry">
            <mxPoint x="760" y="560" as="sourcePoint" />
            <mxPoint x="789.6080000000002" y="564.8400000000001" as="targetPoint" />
          </mxGeometry>
        </mxCell>
        <mxCell id="2gLJgADC_CGhkJn0GSP8-19" value="" style="endArrow=none;html=1;rounded=0;entryX=0;entryY=0.5;entryDx=0;entryDy=0;exitX=0.75;exitY=0;exitDx=0;exitDy=0;labelBackgroundColor=none;fontColor=default;" parent="1" source="CRoNFFil0_l_GyruDIOM-29" target="2gLJgADC_CGhkJn0GSP8-14" edge="1">
          <mxGeometry relative="1" as="geometry">
            <mxPoint x="802.7744474270512" y="498.552711097406" as="sourcePoint" />
            <mxPoint x="920" y="560" as="targetPoint" />
          </mxGeometry>
        </mxCell>
        <mxCell id="2gLJgADC_CGhkJn0GSP8-20" value="" style="endArrow=none;html=1;rounded=0;exitX=1;exitY=0.75;exitDx=0;exitDy=0;labelBackgroundColor=none;fontColor=default;" parent="1" source="CRoNFFil0_l_GyruDIOM-29" target="CRoNFFil0_l_GyruDIOM-16" edge="1">
          <mxGeometry relative="1" as="geometry">
            <mxPoint x="815.2440000000001" y="547.72" as="sourcePoint" />
            <mxPoint x="899.9999999999973" y="595.5" as="targetPoint" />
          </mxGeometry>
        </mxCell>
        <mxCell id="2gLJgADC_CGhkJn0GSP8-21" value="" style="endArrow=none;html=1;rounded=0;exitX=1;exitY=0.5;exitDx=0;exitDy=0;entryX=0;entryY=0.5;entryDx=0;entryDy=0;labelBackgroundColor=none;fontColor=default;" parent="1" source="CRoNFFil0_l_GyruDIOM-29" target="2gLJgADC_CGhkJn0GSP8-8" edge="1">
          <mxGeometry relative="1" as="geometry">
            <mxPoint x="820" y="527" as="sourcePoint" />
            <mxPoint x="920" y="560" as="targetPoint" />
          </mxGeometry>
        </mxCell>
        <mxCell id="2gLJgADC_CGhkJn0GSP8-22" value="" style="endArrow=none;html=1;rounded=0;exitX=0.5;exitY=1;exitDx=0;exitDy=0;entryX=0;entryY=0;entryDx=0;entryDy=0;shape=link;labelBackgroundColor=none;fontColor=default;" parent="1" source="2gLJgADC_CGhkJn0GSP8-1" target="CRoNFFil0_l_GyruDIOM-29" edge="1">
          <mxGeometry relative="1" as="geometry">
            <mxPoint x="660" y="450" as="sourcePoint" />
            <mxPoint x="721.2255525729488" y="498.552711097406" as="targetPoint" />
            <Array as="points" />
          </mxGeometry>
        </mxCell>
        <mxCell id="2gLJgADC_CGhkJn0GSP8-31" value="&lt;font style=&quot;font-size: 24px;&quot;&gt;deletes&lt;/font&gt;" style="shape=rhombus;perimeter=rhombusPerimeter;whiteSpace=wrap;html=1;align=center;labelBackgroundColor=none;" parent="1" vertex="1">
          <mxGeometry x="440" y="340" width="120" height="104" as="geometry" />
        </mxCell>
        <mxCell id="l82jmXTNUX6SvHVwoqtv-11" value="" style="html=1;rounded=0;exitX=1;exitY=1;exitDx=0;exitDy=0;entryX=0;entryY=0.5;entryDx=0;entryDy=0;endArrow=none;endFill=0;labelBackgroundColor=none;fontColor=default;" parent="1" source="o5fwDeldv9W1Opqi0OKy-27" target="2gLJgADC_CGhkJn0GSP8-31" edge="1">
          <mxGeometry relative="1" as="geometry">
            <mxPoint x="520" y="440" as="sourcePoint" />
            <mxPoint x="680" y="440" as="targetPoint" />
            <Array as="points">
              <mxPoint x="164" y="469" />
            </Array>
          </mxGeometry>
        </mxCell>
        <mxCell id="l82jmXTNUX6SvHVwoqtv-12" value="1" style="resizable=0;html=1;whiteSpace=wrap;align=right;verticalAlign=bottom;labelBackgroundColor=none;" parent="l82jmXTNUX6SvHVwoqtv-11" connectable="0" vertex="1">
          <mxGeometry x="1" relative="1" as="geometry">
            <mxPoint x="-50" y="39" as="offset" />
          </mxGeometry>
        </mxCell>
        <mxCell id="l82jmXTNUX6SvHVwoqtv-13" value="" style="html=1;rounded=0;exitX=1;exitY=0.5;exitDx=0;exitDy=0;entryX=0;entryY=1;entryDx=0;entryDy=0;endArrow=none;endFill=0;shape=link;labelBackgroundColor=none;fontColor=default;" parent="1" source="2gLJgADC_CGhkJn0GSP8-31" target="o5fwDeldv9W1Opqi0OKy-53" edge="1">
          <mxGeometry relative="1" as="geometry">
            <mxPoint x="520" y="440" as="sourcePoint" />
            <mxPoint x="680" y="440" as="targetPoint" />
          </mxGeometry>
        </mxCell>
        <mxCell id="l82jmXTNUX6SvHVwoqtv-14" value="N" style="resizable=0;html=1;whiteSpace=wrap;align=right;verticalAlign=bottom;labelBackgroundColor=none;" parent="l82jmXTNUX6SvHVwoqtv-13" connectable="0" vertex="1">
          <mxGeometry x="1" relative="1" as="geometry">
            <mxPoint x="-84" y="77" as="offset" />
          </mxGeometry>
        </mxCell>
        <mxCell id="l82jmXTNUX6SvHVwoqtv-15" value="&lt;font style=&quot;font-size: 24px;&quot;&gt;added_at&amp;nbsp;&lt;/font&gt;" style="ellipse;whiteSpace=wrap;html=1;align=center;labelBackgroundColor=none;" parent="1" vertex="1">
          <mxGeometry x="430" y="660" width="170" height="60" as="geometry" />
        </mxCell>
        <mxCell id="l82jmXTNUX6SvHVwoqtv-16" value="&lt;font style=&quot;font-size: 24px;&quot;&gt;adds&lt;/font&gt;" style="shape=rhombus;perimeter=rhombusPerimeter;whiteSpace=wrap;html=1;align=center;labelBackgroundColor=none;" parent="1" vertex="1">
          <mxGeometry x="430" y="480" width="120" height="85" as="geometry" />
        </mxCell>
        <mxCell id="l82jmXTNUX6SvHVwoqtv-17" value="" style="html=1;rounded=0;entryX=0;entryY=0.5;entryDx=0;entryDy=0;exitX=0.75;exitY=1;exitDx=0;exitDy=0;endArrow=none;endFill=0;shape=link;labelBackgroundColor=none;fontColor=default;" parent="1" source="o5fwDeldv9W1Opqi0OKy-27" target="l82jmXTNUX6SvHVwoqtv-16" edge="1">
          <mxGeometry relative="1" as="geometry">
            <mxPoint x="140" y="480" as="sourcePoint" />
            <mxPoint x="590" y="470" as="targetPoint" />
            <Array as="points">
              <mxPoint x="165" y="522" />
            </Array>
          </mxGeometry>
        </mxCell>
        <mxCell id="l82jmXTNUX6SvHVwoqtv-18" value="1" style="resizable=0;html=1;whiteSpace=wrap;align=right;verticalAlign=bottom;labelBackgroundColor=none;" parent="l82jmXTNUX6SvHVwoqtv-17" connectable="0" vertex="1">
          <mxGeometry x="1" relative="1" as="geometry" />
        </mxCell>
        <mxCell id="l82jmXTNUX6SvHVwoqtv-19" value="" style="shape=link;html=1;rounded=0;exitX=1;exitY=0.5;exitDx=0;exitDy=0;entryX=0.25;entryY=1;entryDx=0;entryDy=0;labelBackgroundColor=none;fontColor=default;" parent="1" source="l82jmXTNUX6SvHVwoqtv-16" target="o5fwDeldv9W1Opqi0OKy-53" edge="1">
          <mxGeometry relative="1" as="geometry">
            <mxPoint x="430" y="470" as="sourcePoint" />
            <mxPoint x="590" y="470" as="targetPoint" />
          </mxGeometry>
        </mxCell>
        <mxCell id="l82jmXTNUX6SvHVwoqtv-20" value="N" style="resizable=0;html=1;whiteSpace=wrap;align=right;verticalAlign=bottom;labelBackgroundColor=none;" parent="l82jmXTNUX6SvHVwoqtv-19" connectable="0" vertex="1">
          <mxGeometry x="1" relative="1" as="geometry">
            <mxPoint x="-25" y="70" as="offset" />
          </mxGeometry>
        </mxCell>
        <mxCell id="l82jmXTNUX6SvHVwoqtv-21" value="" style="endArrow=none;html=1;rounded=0;exitX=0.5;exitY=1;exitDx=0;exitDy=0;entryX=0.5;entryY=0;entryDx=0;entryDy=0;labelBackgroundColor=none;fontColor=default;" parent="1" source="l82jmXTNUX6SvHVwoqtv-16" target="l82jmXTNUX6SvHVwoqtv-15" edge="1">
          <mxGeometry relative="1" as="geometry">
            <mxPoint x="430" y="470" as="sourcePoint" />
            <mxPoint x="590" y="470" as="targetPoint" />
          </mxGeometry>
        </mxCell>
        <mxCell id="l82jmXTNUX6SvHVwoqtv-22" value="" style="endArrow=none;html=1;rounded=0;exitX=0;exitY=1;exitDx=0;exitDy=0;entryX=0.595;entryY=-0.025;entryDx=0;entryDy=0;entryPerimeter=0;labelBackgroundColor=none;fontColor=default;" parent="1" source="l82jmXTNUX6SvHVwoqtv-16" target="l82jmXTNUX6SvHVwoqtv-25" edge="1">
          <mxGeometry relative="1" as="geometry">
            <mxPoint x="480" y="410" as="sourcePoint" />
            <mxPoint x="341.56348854573525" y="750.542206774003" as="targetPoint" />
          </mxGeometry>
        </mxCell>
        <mxCell id="l82jmXTNUX6SvHVwoqtv-25" value="&lt;font style=&quot;font-size: 24px;&quot;&gt;added_by(fk)&lt;/font&gt;" style="ellipse;whiteSpace=wrap;html=1;align=center;fontStyle=4;labelBackgroundColor=none;" parent="1" vertex="1">
          <mxGeometry x="290" y="750" width="160" height="40" as="geometry" />
        </mxCell>
        <mxCell id="Ft_8GJiHORB_0yXk0QqS-1" value="1" style="resizable=0;html=1;whiteSpace=wrap;align=right;verticalAlign=bottom;labelBackgroundColor=none;" parent="1" connectable="0" vertex="1">
          <mxGeometry x="386" y="144" as="geometry">
            <mxPoint x="76" y="107" as="offset" />
          </mxGeometry>
        </mxCell>
        <mxCell id="Ft_8GJiHORB_0yXk0QqS-2" value="1" style="resizable=0;html=1;whiteSpace=wrap;align=right;verticalAlign=bottom;labelBackgroundColor=none;" parent="1" connectable="0" vertex="1">
          <mxGeometry x="646" y="217" as="geometry" />
        </mxCell>
        <mxCell id="Ft_8GJiHORB_0yXk0QqS-3" value="M" style="resizable=0;html=1;whiteSpace=wrap;align=left;verticalAlign=bottom;labelBackgroundColor=none;" parent="1" connectable="0" vertex="1">
          <mxGeometry x="525" y="250" as="geometry">
            <mxPoint x="29" y="37" as="offset" />
          </mxGeometry>
        </mxCell>
        <mxCell id="zDlnDQpysKg_BpemR3-a-3" value="" style="endArrow=none;html=1;rounded=0;exitX=1;exitY=0;exitDx=0;exitDy=0;entryX=0;entryY=0.5;entryDx=0;entryDy=0;labelBackgroundColor=none;fontColor=default;" parent="1" source="o5fwDeldv9W1Opqi0OKy-31" target="2gLJgADC_CGhkJn0GSP8-1" edge="1">
          <mxGeometry relative="1" as="geometry">
            <mxPoint x="350" y="239" as="sourcePoint" />
            <mxPoint x="510" y="239" as="targetPoint" />
          </mxGeometry>
        </mxCell>
        <mxCell id="zDlnDQpysKg_BpemR3-a-4" value="M" style="resizable=0;html=1;whiteSpace=wrap;align=left;verticalAlign=bottom;labelBackgroundColor=none;" parent="1" connectable="0" vertex="1">
          <mxGeometry x="419" y="227" as="geometry" />
        </mxCell>
        <mxCell id="zDlnDQpysKg_BpemR3-a-6" value="" style="endArrow=none;html=1;rounded=0;exitX=1;exitY=0.5;exitDx=0;exitDy=0;entryX=0;entryY=0.5;entryDx=0;entryDy=0;labelBackgroundColor=none;fontColor=default;" parent="1" source="2gLJgADC_CGhkJn0GSP8-1" target="o5fwDeldv9W1Opqi0OKy-53" edge="1">
          <mxGeometry relative="1" as="geometry">
            <mxPoint x="374" y="402" as="sourcePoint" />
            <mxPoint x="534" y="402" as="targetPoint" />
          </mxGeometry>
        </mxCell>
        <mxCell id="zDlnDQpysKg_BpemR3-a-7" value="N" style="resizable=0;html=1;whiteSpace=wrap;align=right;verticalAlign=bottom;labelBackgroundColor=none;" parent="zDlnDQpysKg_BpemR3-a-6" connectable="0" vertex="1">
          <mxGeometry x="1" relative="1" as="geometry">
            <mxPoint x="-28" y="-6" as="offset" />
          </mxGeometry>
        </mxCell>
        <mxCell id="CRoNFFil0_l_GyruDIOM-6" value="&lt;font style=&quot;font-size: 24px;&quot;&gt;Borrow History&lt;/font&gt;" style="ellipse;whiteSpace=wrap;html=1;labelBackgroundColor=none;" parent="1" vertex="1">
          <mxGeometry x="345" y="-88" width="174" height="80" as="geometry" />
        </mxCell>
        <mxCell id="CRoNFFil0_l_GyruDIOM-12" value="" style="edgeStyle=orthogonalEdgeStyle;rounded=0;orthogonalLoop=1;jettySize=auto;html=1;exitX=0.25;exitY=1;exitDx=0;exitDy=0;entryX=0;entryY=0.5;entryDx=0;entryDy=0;endArrow=none;endFill=0;labelBackgroundColor=none;fontColor=default;" parent="1" source="o5fwDeldv9W1Opqi0OKy-27" target="CRoNFFil0_l_GyruDIOM-11" edge="1">
          <mxGeometry relative="1" as="geometry">
            <mxPoint x="10" y="320" as="sourcePoint" />
            <mxPoint x="692" y="535" as="targetPoint" />
            <Array as="points" />
          </mxGeometry>
        </mxCell>
        <mxCell id="CRoNFFil0_l_GyruDIOM-11" value="&lt;font style=&quot;font-size: 24px;&quot;&gt;Approves&lt;/font&gt;" style="rhombus;whiteSpace=wrap;html=1;labelBackgroundColor=none;" parent="1" vertex="1">
          <mxGeometry x="80" y="560" width="140" height="90" as="geometry" />
        </mxCell>
        <mxCell id="CRoNFFil0_l_GyruDIOM-15" value="&lt;font style=&quot;font-size: 24px;&quot;&gt;status (available/ borrowed / maintenance / damaged)&lt;/font&gt;" style="ellipse;whiteSpace=wrap;html=1;align=center;labelBackgroundColor=none;" parent="1" vertex="1">
          <mxGeometry x="904" y="250" width="346" height="80" as="geometry" />
        </mxCell>
        <mxCell id="CRoNFFil0_l_GyruDIOM-16" value="&lt;font style=&quot;font-size: 24px;&quot;&gt;status (&lt;code data-end=&quot;548&quot; data-start=&quot;539&quot;&gt;pending&lt;/code&gt;, &lt;code data-end=&quot;560&quot; data-start=&quot;550&quot;&gt;approved&lt;/code&gt;, &lt;code data-end=&quot;570&quot; data-start=&quot;562&quot;&gt;active&lt;/code&gt;, &lt;code data-end=&quot;582&quot; data-start=&quot;572&quot;&gt;returned&lt;/code&gt;, &lt;code data-end=&quot;593&quot; data-start=&quot;584&quot;&gt;overdue&lt;/code&gt;&amp;nbsp; )&lt;/font&gt;" style="ellipse;whiteSpace=wrap;html=1;align=center;labelBackgroundColor=none;" parent="1" vertex="1">
          <mxGeometry x="1130" y="538" width="310" height="122" as="geometry" />
        </mxCell>
        <mxCell id="CRoNFFil0_l_GyruDIOM-17" value="&lt;font style=&quot;font-size: 24px;&quot;&gt;expected_returndate&lt;/font&gt;" style="ellipse;whiteSpace=wrap;html=1;align=center;labelBackgroundColor=none;" parent="1" vertex="1">
          <mxGeometry x="884" y="720" width="246" height="59" as="geometry" />
        </mxCell>
        <mxCell id="CRoNFFil0_l_GyruDIOM-19" value="" style="endArrow=none;html=1;rounded=0;exitX=0.44;exitY=0.945;exitDx=0;exitDy=0;entryX=0;entryY=0.5;entryDx=0;entryDy=0;exitPerimeter=0;labelBackgroundColor=none;fontColor=default;" parent="1" source="CRoNFFil0_l_GyruDIOM-29" target="CRoNFFil0_l_GyruDIOM-17" edge="1">
          <mxGeometry relative="1" as="geometry">
            <mxPoint x="762" y="567" as="sourcePoint" />
            <mxPoint x="910" y="720" as="targetPoint" />
          </mxGeometry>
        </mxCell>
        <mxCell id="CRoNFFil0_l_GyruDIOM-20" value="&lt;font style=&quot;font-size: 24px;&quot;&gt;deletes&lt;/font&gt;" style="shape=rhombus;perimeter=rhombusPerimeter;whiteSpace=wrap;html=1;align=center;labelBackgroundColor=none;" parent="1" vertex="1">
          <mxGeometry x="-110" y="750" width="120" height="88" as="geometry" />
        </mxCell>
        <mxCell id="CRoNFFil0_l_GyruDIOM-23" value="" style="endArrow=none;html=1;rounded=0;entryX=0;entryY=0.5;entryDx=0;entryDy=0;exitX=0;exitY=0;exitDx=0;exitDy=0;labelBackgroundColor=none;fontColor=default;" parent="1" source="CRoNFFil0_l_GyruDIOM-20" target="o5fwDeldv9W1Opqi0OKy-27" edge="1">
          <mxGeometry relative="1" as="geometry">
            <mxPoint x="-260" y="468.18" as="sourcePoint" />
            <mxPoint x="-100" y="468.18" as="targetPoint" />
            <Array as="points" />
          </mxGeometry>
        </mxCell>
        <mxCell id="CRoNFFil0_l_GyruDIOM-24" value="" style="endArrow=none;html=1;rounded=0;entryX=0.5;entryY=1;entryDx=0;entryDy=0;exitX=0.75;exitY=1;exitDx=0;exitDy=0;shape=link;labelBackgroundColor=none;fontColor=default;" parent="1" source="o5fwDeldv9W1Opqi0OKy-31" target="CRoNFFil0_l_GyruDIOM-20" edge="1">
          <mxGeometry relative="1" as="geometry">
            <mxPoint x="101" y="415" as="sourcePoint" />
            <mxPoint x="-120" y="582.6800000000001" as="targetPoint" />
            <Array as="points">
              <mxPoint x="189" y="788" />
            </Array>
          </mxGeometry>
        </mxCell>
        <mxCell id="CRoNFFil0_l_GyruDIOM-25" value="&lt;font style=&quot;font-size: 24px;&quot;&gt;approves&lt;/font&gt;" style="shape=rhombus;perimeter=rhombusPerimeter;whiteSpace=wrap;html=1;align=center;labelBackgroundColor=none;" parent="1" vertex="1">
          <mxGeometry x="-590" y="245" width="150" height="90" as="geometry" />
        </mxCell>
        <mxCell id="CRoNFFil0_l_GyruDIOM-26" value="`" style="endArrow=none;html=1;rounded=0;exitX=0.25;exitY=1;exitDx=0;exitDy=0;entryX=0;entryY=1;entryDx=0;entryDy=0;shape=link;labelBackgroundColor=none;fontColor=default;" parent="1" edge="1">
          <mxGeometry x="0.2131" y="241" relative="1" as="geometry">
            <mxPoint x="328" y="318" as="sourcePoint" />
            <mxPoint x="-548.5" y="310.5" as="targetPoint" />
            <Array as="points">
              <mxPoint x="-694" y="650" />
              <mxPoint x="-716" y="468" />
            </Array>
            <mxPoint x="-218" y="-202" as="offset" />
          </mxGeometry>
        </mxCell>
        <mxCell id="CRoNFFil0_l_GyruDIOM-27" value="" style="endArrow=none;html=1;rounded=0;exitX=1;exitY=0.5;exitDx=0;exitDy=0;entryX=0;entryY=0.25;entryDx=0;entryDy=0;labelBackgroundColor=none;fontColor=default;" parent="1" source="CRoNFFil0_l_GyruDIOM-25" target="o5fwDeldv9W1Opqi0OKy-27" edge="1">
          <mxGeometry relative="1" as="geometry">
            <mxPoint x="-130" y="410" as="sourcePoint" />
            <mxPoint x="30" y="410" as="targetPoint" />
          </mxGeometry>
        </mxCell>
        <mxCell id="CRoNFFil0_l_GyruDIOM-29" value="&lt;font style=&quot;font-size: 24px;&quot;&gt;Borrow&lt;/font&gt;" style="whiteSpace=wrap;html=1;align=center;labelBackgroundColor=none;" parent="1" vertex="1">
          <mxGeometry x="728" y="510" width="194" height="88" as="geometry" />
        </mxCell>
        <mxCell id="6iOdji23N6P3jRZ4V6Dd-8" value="" style="endArrow=none;html=1;rounded=0;entryX=0;entryY=0;entryDx=0;entryDy=0;exitX=0.5;exitY=1;exitDx=0;exitDy=0;labelBackgroundColor=none;fontColor=default;" parent="1" source="6iOdji23N6P3jRZ4V6Dd-9" target="o5fwDeldv9W1Opqi0OKy-27" edge="1">
          <mxGeometry relative="1" as="geometry">
            <mxPoint x="-343" y="-165" as="sourcePoint" />
            <mxPoint x="82" y="229" as="targetPoint" />
            <Array as="points">
              <mxPoint x="-548" y="-77" />
            </Array>
          </mxGeometry>
        </mxCell>
        <mxCell id="6iOdji23N6P3jRZ4V6Dd-9" value="&lt;font style=&quot;font-size: 24px;&quot;&gt;gets&lt;/font&gt;" style="shape=rhombus;perimeter=rhombusPerimeter;whiteSpace=wrap;html=1;align=center;labelBackgroundColor=none;" parent="1" vertex="1">
          <mxGeometry x="-782" y="-253" width="120" height="60" as="geometry" />
        </mxCell>
        <mxCell id="6iOdji23N6P3jRZ4V6Dd-10" value="" style="endArrow=none;html=1;rounded=0;exitX=0.5;exitY=0;exitDx=0;exitDy=0;entryX=0.25;entryY=1;entryDx=0;entryDy=0;shape=link;labelBackgroundColor=none;fontColor=default;" parent="1" source="6iOdji23N6P3jRZ4V6Dd-9" target="8UzVkWRd_Z5GpzoJQp2u-12" edge="1">
          <mxGeometry relative="1" as="geometry">
            <mxPoint x="-78" y="-31" as="sourcePoint" />
            <mxPoint x="-302" y="-44" as="targetPoint" />
          </mxGeometry>
        </mxCell>
        <mxCell id="6iOdji23N6P3jRZ4V6Dd-11" value="&lt;font style=&quot;font-size: 24px;&quot;&gt;notification&lt;/font&gt;" style="whiteSpace=wrap;html=1;align=center;labelBackgroundColor=none;" parent="1" vertex="1">
          <mxGeometry x="-445" y="-636" width="156" height="46" as="geometry" />
        </mxCell>
        <mxCell id="6iOdji23N6P3jRZ4V6Dd-14" value="&lt;font style=&quot;font-size: 24px;&quot;&gt;message&lt;/font&gt;" style="ellipse;whiteSpace=wrap;html=1;align=center;labelBackgroundColor=none;" parent="1" vertex="1">
          <mxGeometry x="-327" y="-779" width="136" height="68" as="geometry" />
        </mxCell>
        <mxCell id="6iOdji23N6P3jRZ4V6Dd-15" value="" style="endArrow=none;html=1;rounded=0;exitX=0.75;exitY=0;exitDx=0;exitDy=0;entryX=0;entryY=1;entryDx=0;entryDy=0;labelBackgroundColor=none;fontColor=default;" parent="1" source="6iOdji23N6P3jRZ4V6Dd-11" target="6iOdji23N6P3jRZ4V6Dd-14" edge="1">
          <mxGeometry relative="1" as="geometry">
            <mxPoint x="-26" y="-37" as="sourcePoint" />
            <mxPoint x="134" y="-37" as="targetPoint" />
          </mxGeometry>
        </mxCell>
        <mxCell id="6iOdji23N6P3jRZ4V6Dd-16" value="" style="endArrow=none;html=1;rounded=0;exitX=0.5;exitY=0;exitDx=0;exitDy=0;entryX=0.674;entryY=0.944;entryDx=0;entryDy=0;entryPerimeter=0;labelBackgroundColor=none;fontColor=default;" parent="1" source="6iOdji23N6P3jRZ4V6Dd-11" target="6iOdji23N6P3jRZ4V6Dd-19" edge="1">
          <mxGeometry relative="1" as="geometry">
            <mxPoint x="-26" y="90" as="sourcePoint" />
            <mxPoint x="-312" y="-430" as="targetPoint" />
          </mxGeometry>
        </mxCell>
        <mxCell id="6iOdji23N6P3jRZ4V6Dd-17" value="" style="endArrow=none;html=1;rounded=0;exitX=0.25;exitY=0;exitDx=0;exitDy=0;entryX=1;entryY=0.5;entryDx=0;entryDy=0;labelBackgroundColor=none;fontColor=default;" parent="1" source="6iOdji23N6P3jRZ4V6Dd-11" target="6iOdji23N6P3jRZ4V6Dd-21" edge="1">
          <mxGeometry relative="1" as="geometry">
            <mxPoint x="-26" y="90" as="sourcePoint" />
            <mxPoint x="-388" y="-422" as="targetPoint" />
          </mxGeometry>
        </mxCell>
        <mxCell id="6iOdji23N6P3jRZ4V6Dd-19" value="&lt;div&gt;&lt;font style=&quot;font-size: 24px;&quot;&gt;notification_id&lt;/font&gt;&lt;/div&gt;" style="ellipse;whiteSpace=wrap;html=1;align=center;fontStyle=4;labelBackgroundColor=none;" parent="1" vertex="1">
          <mxGeometry x="-542" y="-824" width="175" height="90" as="geometry" />
        </mxCell>
        <mxCell id="6iOdji23N6P3jRZ4V6Dd-21" value="&lt;font style=&quot;font-size: 24px;&quot;&gt;created_at&lt;/font&gt;" style="ellipse;whiteSpace=wrap;html=1;align=center;labelBackgroundColor=none;" parent="1" vertex="1">
          <mxGeometry x="-750" y="-797" width="168" height="40" as="geometry" />
        </mxCell>
        <mxCell id="8UzVkWRd_Z5GpzoJQp2u-3" value="" style="endArrow=none;html=1;rounded=0;exitX=0.5;exitY=1;exitDx=0;exitDy=0;shape=link;width=12;labelBackgroundColor=none;fontColor=default;" parent="1" source="6iOdji23N6P3jRZ4V6Dd-11" edge="1">
          <mxGeometry relative="1" as="geometry">
            <mxPoint x="-193" y="-294" as="sourcePoint" />
            <mxPoint x="-367" y="-547" as="targetPoint" />
          </mxGeometry>
        </mxCell>
        <mxCell id="8UzVkWRd_Z5GpzoJQp2u-6" value="" style="edgeStyle=orthogonalEdgeStyle;rounded=0;orthogonalLoop=1;jettySize=auto;html=1;labelBackgroundColor=none;fontColor=default;" parent="1" source="8UzVkWRd_Z5GpzoJQp2u-4" edge="1">
          <mxGeometry relative="1" as="geometry">
            <mxPoint x="-365" y="-401" as="targetPoint" />
          </mxGeometry>
        </mxCell>
        <mxCell id="8UzVkWRd_Z5GpzoJQp2u-8" value="" style="edgeStyle=orthogonalEdgeStyle;rounded=0;orthogonalLoop=1;jettySize=auto;html=1;labelBackgroundColor=none;fontColor=default;" parent="1" source="8UzVkWRd_Z5GpzoJQp2u-4" target="8UzVkWRd_Z5GpzoJQp2u-13" edge="1">
          <mxGeometry relative="1" as="geometry">
            <mxPoint x="-265" y="-458" as="targetPoint" />
          </mxGeometry>
        </mxCell>
        <mxCell id="8UzVkWRd_Z5GpzoJQp2u-10" value="" style="edgeStyle=orthogonalEdgeStyle;rounded=0;orthogonalLoop=1;jettySize=auto;html=1;labelBackgroundColor=none;fontColor=default;" parent="1" source="8UzVkWRd_Z5GpzoJQp2u-4" edge="1">
          <mxGeometry relative="1" as="geometry">
            <mxPoint x="-520" y="-508" as="targetPoint" />
          </mxGeometry>
        </mxCell>
        <mxCell id="8UzVkWRd_Z5GpzoJQp2u-4" value="&lt;font style=&quot;font-size: 24px;&quot;&gt;d&lt;/font&gt;" style="ellipse;whiteSpace=wrap;html=1;labelBackgroundColor=none;" parent="1" vertex="1">
          <mxGeometry x="-405" y="-548" width="80" height="80" as="geometry" />
        </mxCell>
        <mxCell id="8UzVkWRd_Z5GpzoJQp2u-12" value="&lt;font style=&quot;font-size: 24px;&quot;&gt;user_registers&lt;/font&gt;" style="whiteSpace=wrap;html=1;align=center;labelBackgroundColor=none;" parent="1" vertex="1">
          <mxGeometry x="-690" y="-520" width="167" height="60" as="geometry" />
        </mxCell>
        <mxCell id="8UzVkWRd_Z5GpzoJQp2u-13" value="&lt;font style=&quot;font-size: 24px;&quot;&gt;overdue_alert&lt;/font&gt;" style="whiteSpace=wrap;html=1;align=center;labelBackgroundColor=none;" parent="1" vertex="1">
          <mxGeometry x="-240" y="-530" width="172" height="42" as="geometry" />
        </mxCell>
        <mxCell id="8UzVkWRd_Z5GpzoJQp2u-14" value="&lt;font style=&quot;font-size: 24px;&quot;&gt;return_reminder&lt;/font&gt;" style="whiteSpace=wrap;html=1;align=center;labelBackgroundColor=none;" parent="1" vertex="1">
          <mxGeometry x="-405" y="-397" width="202" height="48" as="geometry" />
        </mxCell>
        <mxCell id="8UzVkWRd_Z5GpzoJQp2u-15" value="" style="endArrow=none;html=1;rounded=0;entryX=0.5;entryY=1;entryDx=0;entryDy=0;exitX=0.5;exitY=0;exitDx=0;exitDy=0;shape=link;labelBackgroundColor=none;fontColor=default;" parent="1" source="8UzVkWRd_Z5GpzoJQp2u-21" target="8UzVkWRd_Z5GpzoJQp2u-13" edge="1">
          <mxGeometry relative="1" as="geometry">
            <mxPoint x="-20" y="-459" as="sourcePoint" />
            <mxPoint x="-33" y="14" as="targetPoint" />
          </mxGeometry>
        </mxCell>
        <mxCell id="8UzVkWRd_Z5GpzoJQp2u-19" value="" style="endArrow=none;html=1;rounded=0;exitX=0.25;exitY=1;exitDx=0;exitDy=0;entryX=0.5;entryY=0;entryDx=0;entryDy=0;shape=link;labelBackgroundColor=none;fontColor=default;" parent="1" source="8UzVkWRd_Z5GpzoJQp2u-14" target="8UzVkWRd_Z5GpzoJQp2u-20" edge="1">
          <mxGeometry relative="1" as="geometry">
            <mxPoint x="-17" y="-74" as="sourcePoint" />
            <mxPoint x="-382" y="-313" as="targetPoint" />
          </mxGeometry>
        </mxCell>
        <mxCell id="8UzVkWRd_Z5GpzoJQp2u-20" value="&lt;font style=&quot;font-size: 24px;&quot;&gt;gets&lt;/font&gt;" style="shape=rhombus;perimeter=rhombusPerimeter;whiteSpace=wrap;html=1;align=center;labelBackgroundColor=none;" parent="1" vertex="1">
          <mxGeometry x="-423" y="-288" width="120" height="60" as="geometry" />
        </mxCell>
        <mxCell id="8UzVkWRd_Z5GpzoJQp2u-21" value="&lt;font style=&quot;font-size: 24px;&quot;&gt;gets&lt;/font&gt;" style="shape=rhombus;perimeter=rhombusPerimeter;whiteSpace=wrap;html=1;align=center;labelBackgroundColor=none;" parent="1" vertex="1">
          <mxGeometry x="59" y="-400" width="120" height="64" as="geometry" />
        </mxCell>
        <mxCell id="8UzVkWRd_Z5GpzoJQp2u-22" value="" style="endArrow=none;html=1;rounded=0;exitX=0.5;exitY=1;exitDx=0;exitDy=0;entryX=0.25;entryY=0;entryDx=0;entryDy=0;labelBackgroundColor=none;fontColor=default;" parent="1" source="8UzVkWRd_Z5GpzoJQp2u-20" target="o5fwDeldv9W1Opqi0OKy-31" edge="1">
          <mxGeometry relative="1" as="geometry">
            <mxPoint x="-159" y="64" as="sourcePoint" />
            <mxPoint x="1" y="64" as="targetPoint" />
            <Array as="points">
              <mxPoint x="-190" y="140" />
            </Array>
          </mxGeometry>
        </mxCell>
        <mxCell id="8UzVkWRd_Z5GpzoJQp2u-23" value="" style="endArrow=none;html=1;rounded=0;exitX=0.5;exitY=1;exitDx=0;exitDy=0;entryX=0.5;entryY=0;entryDx=0;entryDy=0;labelBackgroundColor=none;fontColor=default;" parent="1" source="8UzVkWRd_Z5GpzoJQp2u-21" target="o5fwDeldv9W1Opqi0OKy-31" edge="1">
          <mxGeometry relative="1" as="geometry">
            <mxPoint x="-159" y="64" as="sourcePoint" />
            <mxPoint x="1" y="64" as="targetPoint" />
            <Array as="points">
              <mxPoint x="563" y="-108" />
              <mxPoint x="520" y="80" />
            </Array>
          </mxGeometry>
        </mxCell>
        <mxCell id="8UzVkWRd_Z5GpzoJQp2u-24" value="" style="endArrow=none;html=1;rounded=0;exitX=0;exitY=0.5;exitDx=0;exitDy=0;entryX=0.949;entryY=0.291;entryDx=0;entryDy=0;entryPerimeter=0;labelBackgroundColor=none;fontColor=default;" parent="1" source="8UzVkWRd_Z5GpzoJQp2u-12" target="8UzVkWRd_Z5GpzoJQp2u-25" edge="1">
          <mxGeometry relative="1" as="geometry">
            <mxPoint x="-363" y="-289" as="sourcePoint" />
            <mxPoint x="-754" y="-488" as="targetPoint" />
          </mxGeometry>
        </mxCell>
        <mxCell id="8UzVkWRd_Z5GpzoJQp2u-25" value="&lt;font style=&quot;font-size: 24px;&quot;&gt;recipient_user_id (FK)&lt;/font&gt;" style="ellipse;whiteSpace=wrap;html=1;align=center;labelBackgroundColor=none;" parent="1" vertex="1">
          <mxGeometry x="-1091" y="-585" width="300" height="86" as="geometry" />
        </mxCell>
        <mxCell id="8UzVkWRd_Z5GpzoJQp2u-26" value="&lt;font style=&quot;font-size: 24px;&quot;&gt;related_user_id (FK)&lt;/font&gt;" style="ellipse;whiteSpace=wrap;html=1;align=center;fontStyle=4;labelBackgroundColor=none;" parent="1" vertex="1">
          <mxGeometry x="-80" y="-640" width="205" height="83" as="geometry" />
        </mxCell>
        <mxCell id="8UzVkWRd_Z5GpzoJQp2u-27" value="&lt;font style=&quot;font-size: 24px;&quot;&gt;related_user_id (FK)&lt;/font&gt;" style="ellipse;whiteSpace=wrap;html=1;align=center;fontStyle=4;labelBackgroundColor=none;" parent="1" vertex="1">
          <mxGeometry x="-650" y="-420" width="210" height="79" as="geometry" />
        </mxCell>
        <mxCell id="8UzVkWRd_Z5GpzoJQp2u-28" value="" style="endArrow=none;html=1;rounded=0;exitX=0.75;exitY=0;exitDx=0;exitDy=0;entryX=0;entryY=0.5;entryDx=0;entryDy=0;labelBackgroundColor=none;fontColor=default;" parent="1" source="8UzVkWRd_Z5GpzoJQp2u-13" target="8UzVkWRd_Z5GpzoJQp2u-26" edge="1">
          <mxGeometry relative="1" as="geometry">
            <mxPoint x="-137" y="-312" as="sourcePoint" />
            <mxPoint x="23" y="-312" as="targetPoint" />
          </mxGeometry>
        </mxCell>
        <mxCell id="8UzVkWRd_Z5GpzoJQp2u-29" value="" style="endArrow=none;html=1;rounded=0;exitX=1;exitY=0.5;exitDx=0;exitDy=0;entryX=0;entryY=0.5;entryDx=0;entryDy=0;labelBackgroundColor=none;fontColor=default;" parent="1" source="8UzVkWRd_Z5GpzoJQp2u-27" target="8UzVkWRd_Z5GpzoJQp2u-14" edge="1">
          <mxGeometry relative="1" as="geometry">
            <mxPoint x="-137" y="-312" as="sourcePoint" />
            <mxPoint x="23" y="-312" as="targetPoint" />
          </mxGeometry>
        </mxCell>
        <mxCell id="P2eFBQT9Rrskho8xjD3h-4" value="M" style="resizable=0;html=1;whiteSpace=wrap;align=left;verticalAlign=bottom;labelBackgroundColor=none;" parent="1" connectable="0" vertex="1">
          <mxGeometry x="-763" y="-408" as="geometry">
            <mxPoint x="29" y="37" as="offset" />
          </mxGeometry>
        </mxCell>
        <mxCell id="P2eFBQT9Rrskho8xjD3h-5" value="M" style="resizable=0;html=1;whiteSpace=wrap;align=left;verticalAlign=bottom;labelBackgroundColor=none;" parent="1" connectable="0" vertex="1">
          <mxGeometry x="-473" y="-357" as="geometry">
            <mxPoint x="29" y="37" as="offset" />
          </mxGeometry>
        </mxCell>
        <mxCell id="P2eFBQT9Rrskho8xjD3h-6" value="M" style="resizable=0;html=1;whiteSpace=wrap;align=left;verticalAlign=bottom;labelBackgroundColor=none;" parent="1" connectable="0" vertex="1">
          <mxGeometry x="-215" y="-481" as="geometry">
            <mxPoint x="29" y="37" as="offset" />
          </mxGeometry>
        </mxCell>
        <mxCell id="P2eFBQT9Rrskho8xjD3h-7" value="N" style="resizable=0;html=1;whiteSpace=wrap;align=right;verticalAlign=bottom;labelBackgroundColor=none;" parent="1" connectable="0" vertex="1">
          <mxGeometry x="-264" y="-122" as="geometry" />
        </mxCell>
        <mxCell id="P2eFBQT9Rrskho8xjD3h-8" value="N" style="resizable=0;html=1;whiteSpace=wrap;align=right;verticalAlign=bottom;labelBackgroundColor=none;" parent="1" connectable="0" vertex="1">
          <mxGeometry x="243" y="-239" as="geometry" />
        </mxCell>
        <mxCell id="P2eFBQT9Rrskho8xjD3h-9" value="&lt;font style=&quot;font-size: 18px;&quot;&gt;1&lt;/font&gt;" style="resizable=0;html=1;whiteSpace=wrap;align=right;verticalAlign=bottom;labelBackgroundColor=none;" parent="1" connectable="0" vertex="1">
          <mxGeometry x="-577" y="-48" as="geometry" />
        </mxCell>
        <mxCell id="P2eFBQT9Rrskho8xjD3h-10" value="1" style="resizable=0;html=1;whiteSpace=wrap;align=right;verticalAlign=bottom;labelBackgroundColor=none;" parent="1" connectable="0" vertex="1">
          <mxGeometry x="-170" y="290" as="geometry">
            <mxPoint x="15" y="21" as="offset" />
          </mxGeometry>
        </mxCell>
        <mxCell id="P2eFBQT9Rrskho8xjD3h-11" value="N" style="text;html=1;align=center;verticalAlign=middle;resizable=0;points=[];autosize=1;strokeColor=none;fillColor=none;labelBackgroundColor=none;" parent="1" vertex="1">
          <mxGeometry x="-211" y="498" width="27" height="26" as="geometry" />
        </mxCell>
        <mxCell id="P2eFBQT9Rrskho8xjD3h-12" value="1" style="text;html=1;align=center;verticalAlign=middle;resizable=0;points=[];autosize=1;strokeColor=none;fillColor=none;labelBackgroundColor=none;" parent="1" vertex="1">
          <mxGeometry x="-58" y="382" width="25" height="26" as="geometry" />
        </mxCell>
        <mxCell id="P2eFBQT9Rrskho8xjD3h-14" value="N" style="text;html=1;align=center;verticalAlign=middle;resizable=0;points=[];autosize=1;strokeColor=none;fillColor=none;labelBackgroundColor=none;" parent="1" vertex="1">
          <mxGeometry x="318" y="380" width="27" height="26" as="geometry" />
        </mxCell>
        <mxCell id="P2eFBQT9Rrskho8xjD3h-15" value="1" style="text;html=1;align=center;verticalAlign=middle;resizable=0;points=[];autosize=1;strokeColor=none;fillColor=none;labelBackgroundColor=none;" parent="1" vertex="1">
          <mxGeometry x="18" y="491" width="25" height="26" as="geometry" />
        </mxCell>
        <mxCell id="P2eFBQT9Rrskho8xjD3h-16" value="N" style="text;html=1;align=center;verticalAlign=middle;resizable=0;points=[];autosize=1;strokeColor=none;fillColor=none;labelBackgroundColor=none;" parent="1" vertex="1">
          <mxGeometry x="328" y="607" width="27" height="26" as="geometry" />
        </mxCell>
        <mxCell id="bIMo1s4_p7uWhXGVbynh-2" value="" style="endArrow=none;html=1;rounded=0;entryX=1;entryY=1;entryDx=0;entryDy=0;exitX=0.25;exitY=0;exitDx=0;exitDy=0;" parent="1" source="o5fwDeldv9W1Opqi0OKy-31" target="CRoNFFil0_l_GyruDIOM-6" edge="1">
          <mxGeometry width="50" height="50" relative="1" as="geometry">
            <mxPoint x="610" y="430" as="sourcePoint" />
            <mxPoint x="660" y="380" as="targetPoint" />
            <Array as="points">
              <mxPoint x="470" y="120" />
            </Array>
          </mxGeometry>
        </mxCell>
        <mxCell id="bIMo1s4_p7uWhXGVbynh-3" value="&lt;span style=&quot;font-size: 24px;&quot;&gt;products_added&lt;/span&gt;" style="ellipse;whiteSpace=wrap;html=1;labelBackgroundColor=none;" parent="1" vertex="1">
          <mxGeometry x="-242" y="328" width="162" height="80" as="geometry" />
        </mxCell>
        <mxCell id="bIMo1s4_p7uWhXGVbynh-4" value="" style="endArrow=none;html=1;rounded=0;exitX=1;exitY=0.5;exitDx=0;exitDy=0;entryX=0;entryY=0.5;entryDx=0;entryDy=0;" parent="1" source="bIMo1s4_p7uWhXGVbynh-3" target="o5fwDeldv9W1Opqi0OKy-27" edge="1">
          <mxGeometry width="50" height="50" relative="1" as="geometry">
            <mxPoint x="610" y="500" as="sourcePoint" />
            <mxPoint x="660" y="450" as="targetPoint" />
          </mxGeometry>
        </mxCell>
        <mxCell id="bIMo1s4_p7uWhXGVbynh-5" value="&lt;font style=&quot;font-size: 24px;&quot;&gt;adds&lt;/font&gt;" style="shape=rhombus;perimeter=rhombusPerimeter;whiteSpace=wrap;html=1;align=center;labelBackgroundColor=none;" parent="1" vertex="1">
          <mxGeometry x="-264" y="647.5" width="120" height="85" as="geometry" />
        </mxCell>
        <mxCell id="bIMo1s4_p7uWhXGVbynh-6" value="" style="endArrow=none;html=1;rounded=0;entryX=0.5;entryY=1;entryDx=0;entryDy=0;exitX=0.5;exitY=0;exitDx=0;exitDy=0;" parent="1" source="bIMo1s4_p7uWhXGVbynh-5" target="o5fwDeldv9W1Opqi0OKy-27" edge="1">
          <mxGeometry width="50" height="50" relative="1" as="geometry">
            <mxPoint x="660" y="460" as="sourcePoint" />
            <mxPoint x="710" y="410" as="targetPoint" />
          </mxGeometry>
        </mxCell>
        <mxCell id="bIMo1s4_p7uWhXGVbynh-7" value="" style="endArrow=none;html=1;rounded=0;entryX=0.5;entryY=1;entryDx=0;entryDy=0;exitX=1;exitY=1;exitDx=0;exitDy=0;" parent="1" source="bIMo1s4_p7uWhXGVbynh-5" target="o5fwDeldv9W1Opqi0OKy-31" edge="1">
          <mxGeometry width="50" height="50" relative="1" as="geometry">
            <mxPoint x="660" y="460" as="sourcePoint" />
            <mxPoint x="710" y="410" as="targetPoint" />
          </mxGeometry>
        </mxCell>
        <mxCell id="bIMo1s4_p7uWhXGVbynh-10" value="&lt;font style=&quot;font-size: 24px;&quot;&gt;Lab_report&lt;/font&gt;" style="whiteSpace=wrap;html=1;align=center;" parent="1" vertex="1">
          <mxGeometry x="-960" y="60" width="210" height="90" as="geometry" />
        </mxCell>
        <mxCell id="bIMo1s4_p7uWhXGVbynh-11" value="&lt;span style=&quot;font-size: 24px;&quot;&gt;manages&lt;/span&gt;" style="shape=rhombus;perimeter=rhombusPerimeter;whiteSpace=wrap;html=1;align=center;labelBackgroundColor=none;" parent="1" vertex="1">
          <mxGeometry x="-620" y="65" width="120" height="85" as="geometry" />
        </mxCell>
        <mxCell id="bIMo1s4_p7uWhXGVbynh-12" value="" style="endArrow=none;html=1;rounded=0;exitX=1;exitY=0.75;exitDx=0;exitDy=0;entryX=0;entryY=0.5;entryDx=0;entryDy=0;shape=link;" parent="1" source="bIMo1s4_p7uWhXGVbynh-10" target="bIMo1s4_p7uWhXGVbynh-11" edge="1">
          <mxGeometry relative="1" as="geometry">
            <mxPoint x="200" y="370" as="sourcePoint" />
            <mxPoint x="360" y="370" as="targetPoint" />
          </mxGeometry>
        </mxCell>
        <mxCell id="bIMo1s4_p7uWhXGVbynh-13" value="" style="endArrow=none;html=1;rounded=0;exitX=1;exitY=0.5;exitDx=0;exitDy=0;entryX=0;entryY=0.5;entryDx=0;entryDy=0;shape=link;" parent="1" source="bIMo1s4_p7uWhXGVbynh-11" target="o5fwDeldv9W1Opqi0OKy-27" edge="1">
          <mxGeometry relative="1" as="geometry">
            <mxPoint x="200" y="370" as="sourcePoint" />
            <mxPoint x="360" y="370" as="targetPoint" />
          </mxGeometry>
        </mxCell>
        <mxCell id="bIMo1s4_p7uWhXGVbynh-14" value="&lt;font style=&quot;font-size: 18px;&quot;&gt;1&lt;/font&gt;" style="resizable=0;html=1;whiteSpace=wrap;align=right;verticalAlign=bottom;labelBackgroundColor=none;" parent="1" connectable="0" vertex="1">
          <mxGeometry x="-220" y="190" as="geometry" />
        </mxCell>
        <mxCell id="bIMo1s4_p7uWhXGVbynh-15" value="N" style="resizable=0;html=1;whiteSpace=wrap;align=right;verticalAlign=bottom;labelBackgroundColor=none;" parent="1" connectable="0" vertex="1">
          <mxGeometry x="-690" y="90" as="geometry" />
        </mxCell>
        <mxCell id="bIMo1s4_p7uWhXGVbynh-16" value="N" style="resizable=0;html=1;whiteSpace=wrap;align=right;verticalAlign=bottom;labelBackgroundColor=none;" parent="1" connectable="0" vertex="1">
          <mxGeometry x="210" y="400" as="geometry" />
        </mxCell>
        <mxCell id="bIMo1s4_p7uWhXGVbynh-17" value="&lt;font style=&quot;font-size: 18px;&quot;&gt;1&lt;/font&gt;" style="resizable=0;html=1;whiteSpace=wrap;align=right;verticalAlign=bottom;labelBackgroundColor=none;" parent="1" connectable="0" vertex="1">
          <mxGeometry x="-170" y="560" as="geometry" />
        </mxCell>
        <mxCell id="bIMo1s4_p7uWhXGVbynh-20" value="&lt;div&gt;&lt;font style=&quot;font-size: 24px;&quot;&gt;System health &lt;font style=&quot;&quot;&gt;analysis&lt;/font&gt;&lt;/font&gt;&lt;/div&gt;&lt;div&gt;&lt;br&gt;&lt;/div&gt;" style="ellipse;whiteSpace=wrap;html=1;align=center;" parent="1" vertex="1">
          <mxGeometry x="-1070" y="310" width="200" height="90" as="geometry" />
        </mxCell>
        <mxCell id="bIMo1s4_p7uWhXGVbynh-22" value="" style="endArrow=none;html=1;rounded=0;exitX=0.985;exitY=0.297;exitDx=0;exitDy=0;entryX=0;entryY=1;entryDx=0;entryDy=0;exitPerimeter=0;" parent="1" source="3sTQlZpVu2rzZBZ_wvMt-6" target="bIMo1s4_p7uWhXGVbynh-10" edge="1">
          <mxGeometry relative="1" as="geometry">
            <mxPoint x="-1122.150813012715" y="233.07028286184868" as="sourcePoint" />
            <mxPoint x="240" y="280" as="targetPoint" />
          </mxGeometry>
        </mxCell>
        <mxCell id="bIMo1s4_p7uWhXGVbynh-23" value="" style="endArrow=none;html=1;rounded=0;exitX=1;exitY=0.5;exitDx=0;exitDy=0;entryX=0;entryY=0.25;entryDx=0;entryDy=0;" parent="1" source="3sTQlZpVu2rzZBZ_wvMt-8" target="bIMo1s4_p7uWhXGVbynh-10" edge="1">
          <mxGeometry relative="1" as="geometry">
            <mxPoint x="-1020" y="75" as="sourcePoint" />
            <mxPoint x="-858" y="70" as="targetPoint" />
          </mxGeometry>
        </mxCell>
        <mxCell id="bIMo1s4_p7uWhXGVbynh-24" value="" style="endArrow=none;html=1;rounded=0;exitX=1;exitY=0.5;exitDx=0;exitDy=0;entryX=0.5;entryY=1;entryDx=0;entryDy=0;" parent="1" source="bIMo1s4_p7uWhXGVbynh-20" target="bIMo1s4_p7uWhXGVbynh-10" edge="1">
          <mxGeometry relative="1" as="geometry">
            <mxPoint x="-900" y="403" as="sourcePoint" />
            <mxPoint x="-738" y="320" as="targetPoint" />
            <Array as="points">
              <mxPoint x="-855" y="290" />
            </Array>
          </mxGeometry>
        </mxCell>
        <mxCell id="bIMo1s4_p7uWhXGVbynh-25" value="" style="endArrow=none;html=1;rounded=0;exitX=1;exitY=0;exitDx=0;exitDy=0;entryX=0.25;entryY=1;entryDx=0;entryDy=0;" parent="1" source="3sTQlZpVu2rzZBZ_wvMt-7" target="bIMo1s4_p7uWhXGVbynh-10" edge="1">
          <mxGeometry relative="1" as="geometry">
            <mxPoint x="-1165" y="410" as="sourcePoint" />
            <mxPoint x="-1008" y="410" as="targetPoint" />
          </mxGeometry>
        </mxCell>
        <mxCell id="bIMo1s4_p7uWhXGVbynh-26" value="&lt;font style=&quot;font-size: 24px;&quot;&gt;borrow_id&lt;/font&gt;" style="ellipse;whiteSpace=wrap;html=1;align=center;fontStyle=4;" parent="1" vertex="1">
          <mxGeometry x="1260" y="430" width="160" height="40" as="geometry" />
        </mxCell>
        <mxCell id="bIMo1s4_p7uWhXGVbynh-27" value="" style="endArrow=none;html=1;rounded=0;entryX=0;entryY=0.5;entryDx=0;entryDy=0;exitX=1;exitY=0.5;exitDx=0;exitDy=0;" parent="1" source="CRoNFFil0_l_GyruDIOM-29" target="bIMo1s4_p7uWhXGVbynh-26" edge="1">
          <mxGeometry relative="1" as="geometry">
            <mxPoint x="380" y="-50" as="sourcePoint" />
            <mxPoint x="540" y="-50" as="targetPoint" />
          </mxGeometry>
        </mxCell>
        <mxCell id="3sTQlZpVu2rzZBZ_wvMt-3" value="&lt;font style=&quot;font-size: 24px;&quot;&gt;reportid&lt;/font&gt;" style="ellipse;whiteSpace=wrap;html=1;align=center;fontStyle=4;" vertex="1" parent="1">
          <mxGeometry x="-1160" y="-100" width="140" height="40" as="geometry" />
        </mxCell>
        <mxCell id="3sTQlZpVu2rzZBZ_wvMt-4" value="" style="endArrow=none;html=1;rounded=0;exitX=1;exitY=0.5;exitDx=0;exitDy=0;entryX=0.55;entryY=-0.027;entryDx=0;entryDy=0;entryPerimeter=0;" edge="1" parent="1" source="3sTQlZpVu2rzZBZ_wvMt-3" target="bIMo1s4_p7uWhXGVbynh-10">
          <mxGeometry relative="1" as="geometry">
            <mxPoint x="-610" y="140" as="sourcePoint" />
            <mxPoint x="-450" y="140" as="targetPoint" />
          </mxGeometry>
        </mxCell>
        <mxCell id="3sTQlZpVu2rzZBZ_wvMt-6" value="&lt;div&gt;&lt;div&gt;&lt;font style=&quot;font-size: 24px;&quot;&gt;Borrowing overview&lt;/font&gt;&lt;/div&gt;&lt;div&gt;&lt;br&gt;&lt;/div&gt;&lt;/div&gt;" style="ellipse;whiteSpace=wrap;html=1;align=center;" vertex="1" parent="1">
          <mxGeometry x="-1230" y="125" width="200" height="90" as="geometry" />
        </mxCell>
        <mxCell id="3sTQlZpVu2rzZBZ_wvMt-7" value="&lt;div&gt;&lt;div&gt;&lt;font style=&quot;font-size: 24px;&quot;&gt;Equipment categories&lt;/font&gt;&lt;/div&gt;&lt;div&gt;&lt;br&gt;&lt;/div&gt;&lt;/div&gt;" style="ellipse;whiteSpace=wrap;html=1;align=center;" vertex="1" parent="1">
          <mxGeometry x="-1210" y="227" width="200" height="90" as="geometry" />
        </mxCell>
        <mxCell id="3sTQlZpVu2rzZBZ_wvMt-8" value="&lt;span style=&quot;font-size: 24px;&quot;&gt;User activity tracking&lt;/span&gt;" style="ellipse;whiteSpace=wrap;html=1;align=center;" vertex="1" parent="1">
          <mxGeometry x="-1330" y="60" width="290" height="40" as="geometry" />
        </mxCell>
      </root>
    </mxGraphModel>
  </diagram>
</mxfile>
